# xmcd CD database file
#
# Track frame offsets:
#	150
#	16377
#	43831
#
# Disc length: 944 seconds
#
# Revision: 0
# Processed by: cddbd v1.5.1PL2 Copyright (c) Steve Scherf et al.
# Submitted via: CDex 1.51
#
DISCID=1e03ae03
DTITLE=Jenny Lewis with The Watson Twins - Rise Up With Fists!!
DYEAR=2006
DGENRE=Country
TTITLE0=Rise Up Wisth Fists!!
TTITLE1=Paradise
TTITLE2=Rise Up With Fists!! (Video)
EXTD=YEAR: 2006
EXTT0=
EXTT1=
EXTT2=
PLAYORDER=
